<svg width="26" height="26" viewBox="0 0 26 26"  xmlns="http://www.w3.org/2000/svg">
<path d="M7.4375 8.5C7.4375 8.21821 7.54944 7.94796 7.7487 7.7487C7.94796 7.54944 8.21821 7.4375 8.5 7.4375H17C17.2818 7.4375 17.552 7.54944 17.7513 7.7487C17.9506 7.94796 18.0625 8.21821 18.0625 8.5C18.0625 8.78179 17.9506 9.05204 17.7513 9.2513C17.552 9.45056 17.2818 9.5625 17 9.5625H8.5C8.21821 9.5625 7.94796 9.45056 7.7487 9.2513C7.54944 9.05204 7.4375 8.78179 7.4375 8.5ZM8.5 13.8125H17C17.2818 13.8125 17.552 13.7006 17.7513 13.5013C17.9506 13.302 18.0625 13.0318 18.0625 12.75C18.0625 12.4682 17.9506 12.198 17.7513 11.9987C17.552 11.7994 17.2818 11.6875 17 11.6875H8.5C8.21821 11.6875 7.94796 11.7994 7.7487 11.9987C7.54944 12.198 7.4375 12.4682 7.4375 12.75C7.4375 13.0318 7.54944 13.302 7.7487 13.5013C7.94796 13.7006 8.21821 13.8125 8.5 13.8125ZM12.75 15.9375H8.5C8.21821 15.9375 7.94796 16.0494 7.7487 16.2487C7.54944 16.448 7.4375 16.7182 7.4375 17C7.4375 17.2818 7.54944 17.552 7.7487 17.7513C7.94796 17.9506 8.21821 18.0625 8.5 18.0625H12.75C13.0318 18.0625 13.302 17.9506 13.5013 17.7513C13.7006 17.552 13.8125 17.2818 13.8125 17C13.8125 16.7182 13.7006 16.448 13.5013 16.2487C13.302 16.0494 13.0318 15.9375 12.75 15.9375ZM25.5 2.125V16.5604C25.5009 16.8396 25.4463 17.1161 25.3394 17.374C25.2324 17.6318 25.0753 17.8659 24.8771 18.0625L18.0625 24.8771C17.8659 25.0753 17.6318 25.2324 17.374 25.3394C17.1161 25.4463 16.8396 25.5009 16.5604 25.5H2.125C1.56141 25.5 1.02091 25.2761 0.622398 24.8776C0.223883 24.4791 0 23.9386 0 23.375V2.125C0 1.56141 0.223883 1.02091 0.622398 0.622398C1.02091 0.223883 1.56141 0 2.125 0H23.375C23.9386 0 24.4791 0.223883 24.8776 0.622398C25.2761 1.02091 25.5 1.56141 25.5 2.125ZM2.125 23.375H15.9375V17C15.9375 16.7182 16.0494 16.448 16.2487 16.2487C16.448 16.0494 16.7182 15.9375 17 15.9375H23.375V2.125H2.125V23.375ZM18.0625 18.0625V21.8742L21.8729 18.0625H18.0625Z" />
</svg>
